# xmcd
#
# Track frame offsets: 
#        150
#        21496
#        43995
#        59369
#        75341
#        95440
#        111494
#        125150
#        144538
#        158300
#        173216
#        184035
#        213407
#        230675
#
# Disc length: 3311 seconds
#
# Revision: 0
# Processed by: cddbd v1.5.2PL0 Copyright (c) Steve Scherf et al.
# Submitted via: ExactAudioCopy v1.0b3
#
DISCID=c40ced0e
DTITLE=Various Artist - Trucker Festival
DYEAR=2010
DGENRE=Country Rock
TTITLE0=Outlaws Feat. Thomasson, Hughie - Sweet Home Alabama
TTITLE1=Restless Heart - Fast Movin' Train
TTITLE2=Monroe, Rick - I Remember The Music
TTITLE3=Alexander, Cherish - Hold On
TTITLE4=Collins, Dean - Schmidt, Svenja - Beautiful Mistake
TTITLE5=Shannah - Big River
TTITLE6=Henderson, Kevin - Kentucky Bound
TTITLE7=Mackay, Jackson - Rock My Girl
TTITLE8=Louvin, Charlie - Memories Burnin'
TTITLE9=Ccb - Missing You
TTITLE10=Big Bull Band - Only Daddy That'll Walk The Line
TTITLE11=Dangerous Toys - Simple Man
TTITLE12=Derringer, Rick - You Got That Right
TTITLE13=Marks, Miko - Excited
EXTD=
EXTT0=
EXTT1=
EXTT2=
EXTT3=
EXTT4=
EXTT5=
EXTT6=
EXTT7=
EXTT8=
EXTT9=
EXTT10=
EXTT11=
EXTT12=
EXTT13=
PLAYORDER=
